# xmcd
#
# Track frame offsets:
#	150
#	25528
#	42260
#	63964
#	84720
#	107933
#	126315
#	143325
#	163734
#	181344
#	204674
#
# Disc length: 3094 seconds
#
# Revision: 0
# Processed by: cddbd v1.4PL0 Copyright (c) Steve Scherf et al.
# Submitted via: dBpowerAMP V4.0
#
DISCID=920c140b
DTITLE=Sara Evans - Born To Fly
DYEAR=2001
DGENRE=Country
TTITLE0=Born To Fly
TTITLE1=Saints And Angels
TTITLE2=I Could Not Ask For More
TTITLE3=I Keep Looking
TTITLE4=I Learned That From You
TTITLE5=Let's Dance
TTITLE6=Why Should I Care
TTITLE7=Four Thirty
TTITLE8=Show Me The Way To Your Heart
TTITLE9=You Don't
TTITLE10=Every Little Kiss
EXTD=
EXTT0=
EXTT1=
EXTT2=
EXTT3=
EXTT4=
EXTT5=
EXTT6=
EXTT7=
EXTT8=
EXTT9=
EXTT10=
PLAYORDER=
